<?xml version="1.0" encoding="utf-8"?>
<!-- Svg Vector Icons : http://www.onlinewebfonts.com/icon -->
<!DOCTYPE svg PUBLIC "-//W3C//DTD SVG 1.1//EN" "http://www.w3.org/Graphics/SVG/1.1/DTD/svg11.dtd">
<svg version="1.1" xmlns="http://www.w3.org/2000/svg" xmlns:xlink="http://www.w3.org/1999/xlink" x="0px" y="0px" viewBox="0 0 256 256" enable-background="new 0 0 256 256" xml:space="preserve">
<metadata> Svg Vector Icons : http://www.onlinewebfonts.com/icon </metadata>
<g><g><path fill="#000000" d="M128,10C62.8,10,10,64.2,10,131c0,53.5,33.8,98.8,80.7,114.8c0.7,0.2,1.4,0.2,2,0.2c4.4,0,6.1-3.2,6.1-6c0-2.9-0.1-10.5-0.2-20.6c-4.4,1-8.4,1.4-11.9,1.4c-22.7,0-27.9-17.7-27.9-17.7c-5.4-14-13.1-17.7-13.1-17.7c-10.3-7.2,0-7.4,0.7-7.4c0,0,0,0,0,0c11.8,1.1,18.1,12.5,18.1,12.5c5.9,10.3,13.8,13.2,20.9,13.2c5.5,0,10.5-1.8,13.5-3.2c1.1-7.8,4.1-13.1,7.5-16.2c-26.2-3.1-53.7-13.4-53.7-59.8c0-13.2,4.6-24,12.1-32.5c-1.2-3.1-5.3-15.4,1.2-32c0,0,0.8-0.3,2.6-0.3c4.3,0,13.9,1.6,29.8,12.7c9.4-2.7,19.5-4,29.5-4c10,0,20.1,1.4,29.5,4c15.9-11.1,25.5-12.7,29.8-12.7c1.8,0,2.6,0.3,2.6,0.3c6.4,16.6,2.4,29,1.2,32c7.5,8.5,12.1,19.3,12.1,32.5c0,46.5-27.6,56.7-53.9,59.7c4.2,3.7,8,11.1,8,22.4c0,16.2-0.2,29.2-0.2,33.2c0,2.8,1.6,6.1,6,6.1c0.6,0,1.4,0,2.1-0.2c47-16.1,80.7-61.4,80.7-114.8C246,64.2,193.2,10,128,10z M86.7,229.2c1.2,0,2.3,0,3.5-0.1c0,1.5,0,2.9,0,4.2c0,1.3,0,2.4,0,3.4c-8.2-3.1-16-7.1-23.2-12.1C72.3,227.3,78.8,229.2,86.7,229.2z M92.7,190.8c-0.4,1.2-0.8,2.4-1.1,3.6c-1.8,0.5-3.9,0.9-6.2,0.9c-5.7,0-10-2.8-13.5-8.9c-1.3-2.4-3.6-5.6-6.8-8.6C74,185.3,84.3,188.9,92.7,190.8z M192.8,221.8c-8.3,6.3-17.4,11.2-26.9,14.9c0-1,0-2.2,0-3.4c0-6.3,0-15.7,0-26.6c0-6.5-1.1-11.8-2.6-16.1c19.6-4.4,48.5-17.7,48.5-66.1c0-13-3.7-24.5-11.2-34.3c1.6-6.8,2.9-18.8-2.7-33.2l-1.4-3.7l-3.8-1.3c-0.8-0.3-2.5-0.7-5.3-0.7c-6.1,0-16.3,2.2-31.4,12c-9-2.2-18.3-3.4-28-3.4H128h0c-9.6,0-19.1,1.2-28,3.4c-15.1-9.8-25.3-12-31.4-12c-2.7,0-4.5,0.5-5.3,0.7l-3.8,1.3l-1.4,3.7c-5.6,14.5-4.3,26.4-2.7,33.2c-7.4,9.8-11.2,21.4-11.2,34.3c0,26.1,8.4,42.1,19.3,51.9c-4.2-3.5-9.8-6.4-16.4-6.9h-0.3h-0.3h-0.2c-6.9,0-11.8,2.8-13.3,7.8c-2.5,7.8,5.2,13.2,7.7,15l0.3,0.3l0.8,0.3c0.8,0.5,5.3,3.7,8.9,12.9c1.1,3.3,3.3,7.6,7.2,11.7c-6.9-5.9-13.1-12.6-18.4-20.1c-13.9-19.4-21.2-42.4-21.2-66.5c0-15.2,2.9-30,8.6-43.9c5.5-13.4,13.4-25.5,23.6-35.8C60.7,41,72.4,32.9,85.4,27.3c13.5-5.9,27.8-8.9,42.6-8.9c14.7,0,29.1,3,42.6,8.8c13.1,5.6,24.8,13.8,34.8,24.1s18,22.4,23.6,35.8c5.7,13.9,8.6,28.7,8.6,43.9c0,24.1-7.3,47.2-21.1,66.5C209.8,206.8,201.9,215,192.8,221.8z"/></g></g>
</svg>